<?xml version="1.0"?>
<svg xmlns="http://www.w3.org/2000/svg" width="300" height="96" viewBox="0 0 300 96">
  <style type="text/css"><![CDATA[:root {
  font-family: "Noto Sans", Helvetica, Arial, system-ui, sans-serif;
  font-size: 12px;
  font-weight: 400;
  --text-color: #1F2328;
  --text-color-muted: #59636E;
}

@media (prefers-color-scheme: dark) {
  :root {
    --text-color: #D1D7E0;
    --text-color-muted: #9198A1;
  }
}

text, tspan {
  fill: var(--text-color);
}
tspan.muted {
  fill: var(--text-color-muted);
}

.text-bold {
  font-weight: 600;
}
]]></style>
  <defs>
    <mask mask-type="luminance" id="mask">
      <rect x="0" y="0" width="300" height="8" rx="5" ry="5" fill="white"/>
    </mask>
  </defs>
  <g mask="url(#mask)">
    <rect x="0.0" y="0" width="125.48765329128977" height="8" fill="#dea584"/>
    <rect x="125.48765329128977" y="0" width="59.2305950067238" height="8" fill="#00ADD8"/>
    <rect x="184.71824829801358" y="0" width="30.32962549694775" height="8" fill="#3178c6"/>
    <rect x="215.04787379496133" y="0" width="23.936701807869863" height="8" fill="#701516"/>
    <rect x="238.9845756028312" y="0" width="10.095248624297964" height="8" fill="#41b883"/>
    <rect x="249.07982422712917" y="0" width="5.940919534944471" height="8" fill="#89e051"/>
    <rect x="255.02074376207364" y="0" width="44.97925623792638" height="8" fill="#EDEDED"/>
  </g>
  <circle cx="5.0" cy="21" r="5" fill="#dea584"/>
  <text x="20.0" y="21" dominant-baseline="middle">
    <tspan class="text-bold">Rust</tspan>
    <tspan class="muted"> 41.8%</tspan>
  </text>
  <circle cx="155.0" cy="21" r="5" fill="#00ADD8"/>
  <text x="170.0" y="21" dominant-baseline="middle">
    <tspan class="text-bold">Go</tspan>
    <tspan class="muted"> 19.7%</tspan>
  </text>
  <circle cx="5.0" cy="41" r="5" fill="#3178c6"/>
  <text x="20.0" y="41" dominant-baseline="middle">
    <tspan class="text-bold">TypeScript</tspan>
    <tspan class="muted"> 10.1%</tspan>
  </text>
  <circle cx="155.0" cy="41" r="5" fill="#701516"/>
  <text x="170.0" y="41" dominant-baseline="middle">
    <tspan class="text-bold">Ruby</tspan>
    <tspan class="muted"> 8.0%</tspan>
  </text>
  <circle cx="5.0" cy="61" r="5" fill="#41b883"/>
  <text x="20.0" y="61" dominant-baseline="middle">
    <tspan class="text-bold">Vue</tspan>
    <tspan class="muted"> 3.4%</tspan>
  </text>
  <circle cx="155.0" cy="61" r="5" fill="#89e051"/>
  <text x="170.0" y="61" dominant-baseline="middle">
    <tspan class="text-bold">Shell</tspan>
    <tspan class="muted"> 2.0%</tspan>
  </text>
  <circle cx="5.0" cy="81" r="5" fill="#EDEDED"/>
  <text x="20.0" y="81" dominant-baseline="middle">
    <tspan class="text-bold">Other</tspan>
    <tspan class="muted"> 15.0%</tspan>
  </text>
</svg>
