<?xml version="1.0"?>
<svg xmlns="http://www.w3.org/2000/svg" width="300" height="96" viewBox="0 0 300 96">
  <style type="text/css"><![CDATA[:root {
  font-family: "Noto Sans", Helvetica, Arial, system-ui, sans-serif;
  font-size: 12px;
  font-weight: 400;
  --text-color: #1F2328;
  --text-color-muted: #59636E;
}

@media (prefers-color-scheme: dark) {
  :root {
    --text-color: #D1D7E0;
    --text-color-muted: #9198A1;
  }
}

text, tspan {
  fill: var(--text-color);
}
tspan.muted {
  fill: var(--text-color-muted);
}

.text-bold {
  font-weight: 600;
}
]]></style>
  <defs>
    <mask mask-type="luminance" id="mask">
      <rect x="0" y="0" width="300" height="8" rx="5" ry="5" fill="white"/>
    </mask>
  </defs>
  <g mask="url(#mask)">
    <rect x="0.0" y="0" width="127.90295897639939" height="8" fill="#dea584"/>
    <rect x="127.90295897639939" y="0" width="58.55922290596552" height="8" fill="#00ADD8"/>
    <rect x="186.46218188236492" y="0" width="30.90217218963057" height="8" fill="#3178c6"/>
    <rect x="217.36435407199548" y="0" width="24.397420057378593" height="8" fill="#701516"/>
    <rect x="241.76177412937406" y="0" width="10.289555480433542" height="8" fill="#41b883"/>
    <rect x="252.0513296098076" y="0" width="6.05526653523638" height="8" fill="#89e051"/>
    <rect x="258.10659614504397" y="0" width="41.89340385495601" height="8" fill="#EDEDED"/>
  </g>
  <circle cx="5.0" cy="21" r="5" fill="#dea584"/>
  <text x="20.0" y="21" dominant-baseline="middle">
    <tspan class="text-bold">Rust</tspan>
    <tspan class="muted"> 42.6%</tspan>
  </text>
  <circle cx="155.0" cy="21" r="5" fill="#00ADD8"/>
  <text x="170.0" y="21" dominant-baseline="middle">
    <tspan class="text-bold">Go</tspan>
    <tspan class="muted"> 19.5%</tspan>
  </text>
  <circle cx="5.0" cy="41" r="5" fill="#3178c6"/>
  <text x="20.0" y="41" dominant-baseline="middle">
    <tspan class="text-bold">TypeScript</tspan>
    <tspan class="muted"> 10.3%</tspan>
  </text>
  <circle cx="155.0" cy="41" r="5" fill="#701516"/>
  <text x="170.0" y="41" dominant-baseline="middle">
    <tspan class="text-bold">Ruby</tspan>
    <tspan class="muted"> 8.1%</tspan>
  </text>
  <circle cx="5.0" cy="61" r="5" fill="#41b883"/>
  <text x="20.0" y="61" dominant-baseline="middle">
    <tspan class="text-bold">Vue</tspan>
    <tspan class="muted"> 3.4%</tspan>
  </text>
  <circle cx="155.0" cy="61" r="5" fill="#89e051"/>
  <text x="170.0" y="61" dominant-baseline="middle">
    <tspan class="text-bold">Shell</tspan>
    <tspan class="muted"> 2.0%</tspan>
  </text>
  <circle cx="5.0" cy="81" r="5" fill="#EDEDED"/>
  <text x="20.0" y="81" dominant-baseline="middle">
    <tspan class="text-bold">Other</tspan>
    <tspan class="muted"> 14.0%</tspan>
  </text>
</svg>
